<svg width="24" height="24" viewBox="0 0 24 24" fill="none" xmlns="http://www.w3.org/2000/svg">
<path d="M6 4H10C11.1046 4 12 4.89543 12 6V18C12 19.1046 11.1046 20 10 20H6C4.89543 20 4 19.1046 4 18V6C4 4.89543 4.89543 4 6 4Z" fill="black" fill-opacity="0.2"/>
<path d="M10 3.25C11.5188 3.25 12.75 4.48122 12.75 6V9H11.25V6C11.25 5.30964 10.6904 4.75 10 4.75H6C5.30964 4.75 4.75 5.30964 4.75 6V18C4.75 18.6904 5.30964 19.25 6 19.25H10C10.6904 19.25 11.25 18.6904 11.25 18V15H12.75V18C12.75 19.5188 11.5188 20.75 10 20.75H6C4.48122 20.75 3.25 19.5188 3.25 18V6C3.25 4.48122 4.48122 3.25 6 3.25H10Z" fill="black"/>
<path d="M19.8232 10.7627C20.5066 11.4461 20.5066 12.5539 19.8232 13.2373L16.5303 16.5303L15.4697 15.4697L18.1895 12.75H9V11.25H18.1895L15.4697 8.53027L16.5303 7.46973L19.8232 10.7627Z" fill="black"/>
</svg>
