<svg width="24" height="24" viewBox="0 0 24 24" fill="none" xmlns="http://www.w3.org/2000/svg">
<path fill-rule="evenodd" clip-rule="evenodd" d="M18 3.25C19.5188 3.25 20.75 4.48122 20.75 6V18C20.75 19.5188 19.5188 20.75 18 20.75H6C4.48122 20.75 3.25 19.5188 3.25 18V6C3.25 4.48122 4.48122 3.25 6 3.25H18ZM4.75 14.75V18C4.75 18.6904 5.30964 19.25 6 19.25H11.25V14.75H4.75ZM12.75 14.75V19.25H18C18.6904 19.25 19.25 18.6904 19.25 18V14.75H12.75ZM4.75 13.25H11.25V8.75H4.75V13.25ZM12.75 13.25H19.25V8.75H12.75V13.25ZM6 4.75C5.30964 4.75 4.75 5.30964 4.75 6V7.25H19.25V6C19.25 5.30964 18.6904 4.75 18 4.75H6Z" fill="black"/>
<path d="M6 4C4.89543 4 4 4.89543 4 6L4 8L20 8L20 6C20 4.89543 19.1046 4 18 4L6 4Z" fill="black" fill-opacity="0.2"/>
</svg>
